<?xml version="1.0" encoding="UTF-8" standalone="no"?>
<!-- Created with Inkscape (http://www.inkscape.org/) -->

<svg
   width="210mm"
   height="297mm"
   viewBox="0 0 210 297"
   version="1.1"
   id="svg1"
   inkscape:version="1.4.4 (dcaf3e7, 2026-05-05)"
   sodipodi:docname="V_logo_voicebot.svg"
   xmlns:inkscape="http://www.inkscape.org/namespaces/inkscape"
   xmlns:sodipodi="http://sodipodi.sourceforge.net/DTD/sodipodi-0.dtd"
   xmlns="http://www.w3.org/2000/svg"
   xmlns:svg="http://www.w3.org/2000/svg">
  <sodipodi:namedview
     id="namedview1"
     pagecolor="#ffffff"
     bordercolor="#000000"
     borderopacity="0.25"
     inkscape:showpageshadow="2"
     inkscape:pageopacity="0.0"
     inkscape:pagecheckerboard="0"
     inkscape:deskcolor="#d1d1d1"
     inkscape:document-units="mm"
     inkscape:zoom="0.74118967"
     inkscape:cx="357.53331"
     inkscape:cy="565.30739"
     inkscape:window-width="1567"
     inkscape:window-height="1045"
     inkscape:window-x="0"
     inkscape:window-y="34"
     inkscape:window-maximized="0"
     inkscape:current-layer="layer1" />
  <defs
     id="defs1" />
  <g
     inkscape:label="Layer 1"
     inkscape:groupmode="layer"
     id="layer1">
    <path
       id="path1"
       style="baseline-shift:baseline;display:inline;overflow:visible;opacity:1;vector-effect:none;fill:#46babc;fill-opacity:1;stroke-linecap:round;stroke-linejoin:round;enable-background:accumulate;stop-color:#000000;stop-opacity:1"
       d="m 46.465898,33.21451 c -1.745702,0.08843 -3.47228,0.405317 -5.135604,0.942578 C 30.82002,37.552183 25.051619,48.824314 28.445809,59.33488 l 55.687557,172.4179 c 2.652797,8.20203 10.262035,13.78181 18.882154,13.8461 8.62013,0.0643 16.31175,-5.40136 19.08659,-13.56291 L 180.64685,59.618066 c 3.5504,-10.458769 -2.04932,-21.815545 -12.50776,-25.366927 -3.32483,-1.129066 -6.88832,-1.362901 -10.33218,-0.677994 -7.00794,1.393597 -12.74011,6.419953 -15.03733,13.185758 L 103.63915,162.00096 66.510152,47.04209 C 63.727995,38.42783 55.506692,32.756344 46.465898,33.21451 Z m 57.228032,149.89937 c 9.26594,-8e-5 16.77758,7.51133 16.77779,16.77727 8e-5,9.26615 -7.51164,16.77787 -16.77779,16.77779 -9.266152,8e-5 -16.777868,-7.51164 -16.777788,-16.77779 2.07e-4,-9.26594 7.511839,-16.77734 16.777788,-16.77727 z"
       sodipodi:nodetypes="ccccsccccccccccccc" />
  </g>
</svg>
